<?xml version="1.0" standalone="no"?>
<!DOCTYPE svg PUBLIC "-//W3C//DTD SVG 20010904//EN"
 "http://www.w3.org/TR/2001/REC-SVG-20010904/DTD/svg10.dtd">
<svg version="1.0" xmlns="http://www.w3.org/2000/svg"
 width="1200.000000pt" height="1200.000000pt" viewBox="0 0 1200.000000 1200.000000"
 preserveAspectRatio="xMidYMid meet">

<g transform="translate(0.000000,1200.000000) scale(0.100000,-0.100000)"
fill="#000000" stroke="none">
<path d="M6559 8777 c-25 -12 -86 -52 -135 -88 -49 -36 -226 -166 -394 -289
-377 -276 -595 -440 -723 -542 -124 -101 -267 -237 -291 -278 -18 -31 -16 -30
60 23 44 30 426 295 851 590 l772 534 -17 34 c-22 43 -59 48 -123 16z"/>
<path d="M7070 8316 c-380 -112 -1384 -521 -1693 -690 -86 -47 -172 -105 -165
-112 2 -2 409 142 904 320 494 178 928 333 964 346 102 36 127 73 87 127 l-22
31 -75 -22z"/>
<path d="M5849 7526 c-26 -7 -71 -30 -100 -51 -51 -38 -59 -40 -149 -46 -108
-7 -147 -22 -222 -89 -48 -42 -71 -50 -295 -109 -35 -10 -40 -14 -36 -32 5
-16 11 -20 32 -16 15 3 82 14 151 23 128 18 133 21 173 78 28 40 115 86 163
86 53 0 68 -18 61 -70 -3 -27 -1 -40 6 -40 7 0 47 36 90 80 103 107 126 120
207 119 36 0 83 -6 105 -13 35 -10 40 -16 43 -44 2 -20 -5 -47 -17 -67 l-20
-34 52 21 c91 36 168 58 207 58 50 0 125 -51 165 -113 29 -45 31 -46 70 -41
23 3 93 -2 158 -10 109 -16 167 -14 167 4 0 10 -135 66 -192 79 -26 6 -65 11
-86 11 -35 0 -48 8 -111 67 l-72 66 -72 5 c-40 2 -88 0 -109 -6 -33 -9 -41 -7
-95 29 -96 65 -178 81 -274 55z"/>
<path d="M4814 7048 c32 -424 262 -836 589 -1057 l76 -51 513 0 513 0 130 120
c198 182 287 286 345 405 27 55 65 154 85 220 35 115 75 338 75 418 l0 37
-1166 0 -1167 0 7 -92z"/>
<path d="M4630 5015 l0 -575 365 0 365 0 0 90 0 90 -255 0 -255 0 0 155 0 155
200 0 200 0 0 85 0 85 -200 0 -200 0 0 155 0 155 253 2 252 3 3 88 3 87 -366
0 -365 0 0 -575z"/>
<path d="M6424 5495 c-15 -10 -25 -34 -33 -77 -33 -178 -28 -165 -69 -172
-101 -18 -93 -11 -90 -74 l3 -57 58 -3 57 -3 0 -247 c0 -256 5 -297 43 -353
39 -58 79 -74 187 -74 83 1 101 4 147 28 28 14 54 30 57 35 5 9 -56 106 -73
117 -6 3 -24 -1 -40 -10 -42 -21 -68 -19 -97 10 l-24 24 2 233 3 233 108 3
107 3 0 69 0 70 -110 0 -110 0 0 130 0 130 -53 0 c-30 0 -62 -6 -73 -15z"/>
<path d="M5691 5254 c-58 -15 -130 -51 -175 -88 -28 -22 -28 -22 -12 -55 23
-44 52 -71 77 -71 11 0 53 16 92 35 156 77 263 26 266 -126 l1 -36 -81 -7
c-304 -25 -449 -146 -398 -331 15 -52 82 -119 134 -134 102 -28 226 -4 315 60
34 25 44 28 51 17 5 -7 9 -19 9 -25 0 -7 9 -22 20 -33 16 -16 33 -20 81 -20
l60 0 -3 313 -3 312 -27 51 c-35 66 -98 120 -162 139 -62 19 -174 18 -245 -1z
m249 -538 c0 -61 -2 -65 -35 -90 -114 -87 -255 -72 -258 27 -1 47 30 81 95
103 48 15 176 34 191 26 4 -2 7 -32 7 -66z"/>
<path d="M7035 5249 c-120 -42 -175 -114 -175 -231 0 -127 49 -177 235 -243
121 -42 149 -61 153 -104 10 -95 -127 -132 -245 -66 -25 14 -61 25 -79 25 -29
0 -38 -6 -59 -41 -39 -61 -39 -62 17 -96 83 -50 156 -66 262 -60 142 8 227 55
272 152 29 60 32 150 8 201 -32 67 -68 88 -285 168 -88 32 -115 88 -64 136 39
37 108 38 204 4 76 -27 81 -27 99 -11 10 10 27 33 38 52 18 34 18 35 -1 50
-101 79 -259 105 -380 64z"/>
<path d="M4272 3894 c-22 -15 -22 -16 -22 -338 0 -300 1 -324 18 -339 23 -21
52 -22 78 -3 17 13 19 30 22 175 l3 161 31 30 c26 27 37 31 76 28 36 -2 49 -9
66 -31 18 -25 21 -46 26 -193 5 -175 8 -184 57 -184 49 0 53 18 53 213 0 207
-11 250 -72 287 -52 31 -132 28 -190 -9 l-46 -29 -4 103 c-2 84 -6 107 -22
124 -23 25 -44 27 -74 5z"/>
<path d="M8668 3879 c-26 -15 -25 -85 1 -99 22 -11 61 -13 85 -4 25 9 22 90
-3 104 -25 13 -61 12 -83 -1z"/>
<path d="M8337 3802 c-10 -11 -17 -36 -17 -60 0 -41 -1 -42 -35 -42 -64 0 -82
-69 -25 -100 10 -5 28 -10 39 -10 20 0 21 -5 21 -147 0 -173 11 -208 70 -229
97 -34 195 11 160 75 -7 15 -22 21 -58 23 l-47 3 -3 136 -3 136 46 5 c69 8 92
38 65 89 -8 15 -22 19 -60 19 l-50 0 0 43 c0 30 -6 49 -18 60 -24 22 -65 21
-85 -1z"/>
<path d="M1925 3706 c-90 -41 -139 -130 -139 -251 0 -96 25 -157 85 -209 74
-63 157 -72 243 -27 41 22 56 26 56 16 0 -34 67 -46 93 -17 15 16 17 48 17
245 0 192 -2 228 -16 241 -24 24 -71 20 -89 -8 l-15 -23 -47 23 c-53 28 -139
32 -188 10z m187 -122 c11 -10 30 -39 40 -63 35 -77 2 -178 -67 -207 -46 -19
-73 -18 -114 4 -94 51 -96 225 -3 277 36 20 115 14 144 -11z"/>
<path d="M2595 3703 c-16 -8 -40 -25 -52 -36 -19 -17 -23 -18 -23 -4 0 46 -77
64 -104 25 -13 -19 -16 -59 -16 -235 0 -200 1 -214 20 -233 25 -25 62 -26 83
-2 12 14 16 48 19 175 l3 159 33 29 c25 23 42 29 75 29 84 -1 97 -32 97 -229
0 -131 2 -150 18 -164 25 -23 58 -21 83 4 20 20 20 29 17 197 -3 161 -5 181
-26 224 -15 31 -34 51 -56 62 -43 20 -132 20 -171 -1z"/>
<path d="M4925 3701 c-51 -23 -118 -98 -133 -149 -16 -53 -15 -165 2 -206 20
-47 73 -104 120 -129 63 -32 184 -31 251 4 55 28 78 66 59 97 -16 25 -50 26
-104 3 -58 -25 -87 -26 -137 -6 -33 13 -83 67 -83 88 0 4 69 7 153 7 184 0
201 6 205 70 6 86 -55 181 -142 221 -53 24 -139 24 -191 0z m155 -106 c16 -9
37 -29 45 -45 l16 -30 -121 0 c-81 0 -120 4 -120 11 0 6 15 26 34 45 28 28 42
34 75 34 23 0 55 -7 71 -15z"/>
<path d="M5519 3691 c-45 -28 -45 -28 -55 -7 -7 16 -18 21 -49 21 -62 0 -66
-14 -63 -263 3 -198 4 -215 22 -228 27 -19 60 -18 78 4 13 13 17 49 20 167 3
163 10 186 63 221 20 13 33 14 64 6 51 -13 85 3 89 42 8 70 -85 90 -169 37z"/>
<path d="M5875 3706 c-90 -39 -146 -124 -153 -232 -6 -93 14 -151 74 -210 68
-68 167 -90 271 -59 68 20 103 49 103 85 0 54 -36 61 -130 24 -32 -12 -57 -15
-83 -10 -41 8 -102 55 -110 85 -5 19 3 20 159 23 154 3 165 4 186 25 21 22 22
26 10 80 -15 74 -55 130 -123 171 -45 27 -63 32 -114 32 -33 -1 -73 -7 -90
-14z m160 -121 c18 -13 35 -33 38 -45 5 -19 1 -20 -113 -20 -114 0 -118 1
-113 20 3 11 20 32 37 45 43 34 107 34 151 0z"/>
<path d="M6669 3700 c-86 -45 -135 -140 -132 -256 3 -107 49 -185 135 -228 76
-38 151 -32 221 16 15 11 27 15 27 9 0 -18 31 -41 55 -41 52 0 55 12 55 264 0
258 -1 260 -62 254 -22 -2 -36 -10 -42 -24 l-10 -21 -44 23 c-58 31 -150 32
-203 4z m192 -117 c83 -70 77 -200 -11 -260 -118 -81 -250 79 -180 217 37 73
130 94 191 43z"/>
<path d="M7321 3686 c-43 -29 -51 -32 -51 -17 0 27 -25 43 -62 39 -55 -5 -59
-25 -56 -266 3 -198 4 -215 22 -228 27 -19 60 -18 79 4 14 15 17 42 17 148 0
151 10 195 49 224 33 22 97 26 122 7 33 -26 39 -55 39 -206 0 -138 2 -153 20
-171 25 -25 62 -26 84 -1 16 17 17 40 14 203 -3 162 -5 188 -24 223 -26 51
-72 75 -145 75 -48 0 -65 -5 -108 -34z"/>
<path d="M9075 3703 c-16 -8 -40 -25 -52 -36 l-23 -20 0 20 c0 29 -23 45 -62
41 -55 -5 -59 -25 -56 -266 3 -198 4 -215 22 -228 27 -19 60 -18 79 4 14 15
17 42 17 148 0 148 10 195 47 224 33 26 93 26 124 1 23 -19 24 -25 29 -191 5
-155 7 -173 24 -186 27 -19 60 -18 79 4 14 15 17 42 17 156 0 148 10 191 51
220 13 9 38 16 55 16 83 0 94 -26 94 -220 0 -137 2 -152 20 -170 25 -25 62
-26 83 -2 15 16 17 44 17 188 -1 242 -25 299 -133 311 -72 8 -113 -4 -159 -47
-23 -22 -42 -39 -43 -38 -21 39 -43 62 -70 74 -45 18 -122 17 -160 -3z"/>
<path d="M9883 3706 c-18 -8 -53 -36 -78 -61 -136 -141 -79 -389 103 -441 100
-29 228 0 268 61 15 23 15 27 0 50 -20 31 -49 32 -101 4 -31 -16 -51 -19 -90
-15 -56 6 -91 29 -118 75 l-19 31 145 0 c173 0 205 5 219 36 28 60 -28 181
-110 239 -37 25 -54 30 -115 32 -47 2 -83 -2 -104 -11z m173 -130 c19 -19 34
-39 34 -45 0 -7 -38 -11 -115 -11 -118 0 -125 3 -105 40 16 29 60 49 109 50
36 0 49 -6 77 -34z"/>
<path d="M2976 3688 c-13 -18 -16 -53 -16 -178 0 -177 9 -222 53 -268 54 -56
159 -67 234 -22 32 19 33 19 33 0 0 -35 -22 -69 -55 -85 -42 -19 -80 -19 -144
2 -48 15 -52 15 -70 -1 -74 -67 26 -137 175 -123 107 10 175 58 199 141 11 38
15 107 15 287 0 260 -2 269 -59 269 -54 0 -61 -21 -61 -184 0 -174 -8 -199
-70 -217 -34 -11 -46 -10 -76 4 -19 9 -39 28 -44 43 -6 14 -10 92 -10 174 0
122 -3 151 -16 164 -23 24 -70 20 -88 -6z"/>
<path d="M3502 3698 c-7 -7 -12 -25 -12 -41 0 -32 131 -396 156 -434 18 -28
64 -31 86 -5 9 9 30 62 48 117 18 55 36 104 40 108 4 5 24 -41 44 -101 39
-117 57 -142 99 -142 36 0 43 14 126 237 71 192 82 238 59 261 -16 16 -73 15
-86 -1 -6 -7 -31 -68 -57 -136 -25 -69 -49 -129 -52 -134 -3 -6 -21 32 -40 84
-35 98 -55 129 -82 129 -35 0 -57 -31 -91 -124 -18 -53 -36 -96 -40 -96 -3 0
-27 60 -54 133 -26 72 -53 138 -58 145 -13 15 -70 16 -86 0z"/>
<path d="M7729 3693 c-19 -22 -25 -281 -9 -358 26 -126 146 -181 263 -121 l47
23 0 -24 c0 -37 -18 -63 -55 -79 -45 -18 -76 -18 -141 3 -51 16 -55 16 -74 -2
-25 -22 -26 -67 -2 -88 26 -23 116 -40 182 -34 62 5 123 32 157 69 49 52 53
80 53 346 0 278 -2 286 -60 280 -53 -5 -60 -29 -60 -201 0 -143 -1 -149 -24
-172 -33 -33 -69 -40 -114 -23 -52 19 -61 53 -61 229 -1 99 -5 149 -13 157
-17 17 -73 15 -89 -5z"/>
<path d="M8666 3688 c-13 -19 -16 -59 -16 -235 0 -200 1 -214 20 -233 25 -25
62 -26 83 -2 15 16 17 48 17 240 0 187 -2 223 -16 236 -23 24 -70 20 -88 -6z"/>
</g>
</svg>
