<?xml version="1.0" standalone="no"?>
<!DOCTYPE svg PUBLIC "-//W3C//DTD SVG 20010904//EN"
 "http://www.w3.org/TR/2001/REC-SVG-20010904/DTD/svg10.dtd">
<svg version="1.0" xmlns="http://www.w3.org/2000/svg"
 width="1200.000000pt" height="1200.000000pt" viewBox="0 0 1200.000000 1200.000000"
 preserveAspectRatio="xMidYMid meet">

<g transform="translate(0.000000,1200.000000) scale(0.100000,-0.100000)"
fill="#000000" stroke="none">
<path d="M0 6000 l0 -6000 6000 0 6000 0 0 6000 0 6000 -6000 0 -6000 0 0
-6000z m6687 2762 c8 -19 11 -38 6 -42 -4 -4 -377 -263 -828 -575 -451 -312
-833 -577 -849 -588 l-29 -21 24 43 c25 44 168 182 299 287 112 90 369 282
699 524 162 118 339 248 395 289 183 135 253 156 283 83z m482 -448 c25 -32
26 -62 3 -90 -12 -16 -279 -116 -942 -354 -1128 -406 -1030 -372 -1024 -356
23 60 415 249 1034 501 341 139 841 318 902 324 4 1 16 -11 27 -25z m-1139
-788 c20 -7 62 -29 93 -50 56 -37 57 -38 109 -26 30 6 76 8 106 4 45 -5 64
-15 111 -54 31 -26 62 -54 70 -63 7 -10 24 -17 36 -17 49 0 183 -34 248 -63
56 -25 65 -32 55 -44 -9 -12 -27 -14 -78 -9 -36 3 -116 9 -178 12 -109 7 -113
8 -127 33 -20 39 -85 98 -128 116 -56 23 -116 10 -280 -60 -41 -17 -41 -16 -5
37 10 14 18 38 18 53 0 21 -8 29 -37 42 -21 8 -63 18 -94 20 -80 8 -131 -18
-204 -101 -51 -57 -109 -106 -127 -106 -3 0 0 18 5 40 21 76 -40 101 -137 55
-43 -21 -94 -69 -106 -100 -7 -19 -24 -24 -165 -45 -132 -19 -159 -21 -166 -9
-5 8 -7 18 -6 23 2 5 65 27 141 48 123 35 145 44 195 85 76 62 120 79 224 87
78 6 93 10 142 42 29 20 71 42 92 49 48 18 147 18 193 1z m1110 -434 c0 -166
-77 -477 -157 -637 -49 -95 -87 -141 -276 -327 l-190 -188 -523 0 -522 0 -74
49 c-87 59 -230 198 -303 296 -163 217 -265 490 -282 753 l-6 102 1166 0 1167
0 0 -48z m-1780 -1592 l0 -90 -250 0 -250 0 0 -150 0 -150 198 -2 197 -3 3
-87 3 -88 -201 0 -200 0 0 -155 0 -155 250 0 250 0 0 -90 0 -90 -365 0 -365 0
0 575 0 575 365 0 365 0 0 -90z m1200 -120 l0 -130 105 0 105 0 0 -75 0 -75
-105 0 -105 0 0 -234 c0 -205 2 -237 17 -251 16 -17 49 -17 115 0 24 6 30 2
62 -48 20 -31 36 -60 36 -65 0 -17 -96 -60 -158 -72 -102 -18 -192 8 -240 70
-38 49 -42 85 -42 346 l0 254 -49 0 c-61 0 -75 16 -76 84 l0 51 66 8 66 9 18
106 c24 147 28 152 115 152 l70 0 0 -130z m-605 -127 c62 -20 132 -90 159
-159 18 -44 20 -81 24 -351 l4 -303 -76 0 c-73 0 -76 1 -91 30 -8 16 -15 36
-15 45 0 11 -15 5 -57 -24 -32 -21 -76 -44 -97 -51 -50 -16 -182 -16 -221 -1
-88 35 -134 106 -135 204 0 134 93 213 298 253 41 8 99 14 129 14 l55 0 -4 65
c-3 58 -8 70 -36 97 -28 29 -38 32 -90 33 -47 0 -71 -6 -122 -32 -81 -42 -120
-43 -153 -3 -57 67 -41 97 78 156 113 55 234 65 350 27z m1382 -17 c34 -15 71
-38 82 -50 l20 -21 -30 -49 c-29 -46 -32 -48 -67 -43 -20 3 -64 15 -97 27 -54
20 -66 21 -113 10 -60 -13 -88 -44 -78 -85 9 -34 37 -51 164 -96 178 -65 226
-115 225 -234 -1 -105 -58 -196 -148 -236 -129 -57 -340 -36 -440 45 l-29 24
19 37 c22 40 59 75 82 75 7 0 41 -14 74 -31 47 -23 74 -30 121 -30 72 -1 108
20 122 71 9 30 7 35 -21 60 -17 15 -62 38 -99 50 -169 56 -241 107 -263 187
-26 93 -6 169 64 238 68 69 119 85 250 82 86 -2 109 -6 162 -31z m-2985 -1343
c15 -14 18 -32 18 -125 l0 -110 30 26 c87 73 220 52 263 -42 19 -41 22 -68 25
-220 4 -200 -2 -222 -63 -222 -58 0 -65 22 -65 192 0 89 -5 157 -11 172 -23
50 -107 55 -151 9 -22 -23 -23 -33 -26 -181 -4 -176 -10 -192 -68 -192 -63 0
-64 7 -64 355 0 265 2 314 16 333 18 27 69 30 96 5z m4418 -22 c14 -26 13 -74
-2 -89 -15 -15 -104 -16 -113 -1 -12 19 -9 77 4 93 20 24 97 22 111 -3z m-352
-57 c17 -12 22 -25 22 -60 l0 -44 43 0 c51 0 80 -24 80 -66 0 -36 -27 -54 -80
-54 l-43 0 0 -121 c0 -143 7 -164 55 -155 23 5 38 2 49 -9 17 -17 21 -52 8
-71 -22 -33 -108 -45 -171 -23 -53 19 -61 48 -61 224 l0 155 -32 0 c-40 0 -68
25 -68 61 0 33 32 59 72 59 25 0 27 3 30 47 2 39 7 50 28 60 33 16 41 16 68
-3z m-6298 -114 c37 -19 38 -19 51 0 24 33 64 36 93 6 l26 -25 0 -213 c0 -243
-4 -261 -61 -266 -24 -2 -40 3 -52 16 -17 19 -18 19 -64 -4 -54 -28 -135 -32
-188 -10 -48 21 -111 89 -129 143 -22 65 -21 170 3 226 29 67 85 125 140 142
56 18 129 12 181 -15z m616 19 c51 -13 88 -51 104 -107 5 -20 10 -114 10 -209
0 -188 -4 -203 -58 -203 -54 0 -57 6 -63 182 -4 90 -10 171 -14 181 -21 50
-113 57 -159 10 -23 -23 -24 -30 -28 -182 -3 -176 -9 -191 -64 -191 -62 0 -64
6 -64 260 l0 230 26 16 c31 21 73 10 89 -23 l11 -21 28 21 c31 22 91 46 119
47 10 0 38 -5 63 -11z m2392 -18 c73 -37 129 -118 139 -200 5 -41 2 -52 -16
-70 -20 -20 -31 -21 -186 -21 l-166 0 16 -30 c35 -68 135 -91 215 -50 49 25
87 18 101 -18 23 -60 -61 -115 -186 -120 -72 -3 -85 -1 -135 25 -106 56 -155
161 -132 291 12 75 48 132 109 176 71 50 163 57 241 17z m527 19 c31 -12 46
-46 33 -80 -13 -35 -27 -41 -84 -34 -104 12 -124 -24 -124 -223 0 -109 -3
-143 -16 -161 -18 -27 -69 -30 -96 -5 -16 15 -18 36 -18 240 0 210 1 224 20
243 27 27 56 25 86 -5 l25 -25 28 21 c25 18 72 35 108 38 6 1 23 -3 38 -9z
m412 -19 c82 -41 133 -117 141 -207 7 -79 -6 -84 -200 -84 -102 0 -158 -4
-158 -10 0 -20 33 -61 61 -76 40 -20 109 -17 163 7 51 22 80 19 97 -13 18 -34
2 -65 -48 -95 -37 -21 -62 -28 -127 -31 -89 -5 -129 7 -191 53 -88 68 -116
225 -61 339 61 125 205 178 323 117z m805 0 c36 -18 38 -18 54 0 9 10 25 21
35 24 19 6 59 -10 71 -29 4 -6 8 -112 8 -235 0 -195 -2 -227 -17 -243 -23 -25
-78 -24 -97 3 l-15 21 -33 -23 c-47 -34 -149 -39 -205 -10 -117 59 -171 204
-129 345 44 146 194 213 328 147z m657 0 c63 -45 81 -115 81 -321 0 -149 -9
-174 -61 -178 -63 -5 -69 9 -69 174 0 163 -11 207 -56 224 -40 16 -91 2 -119
-32 -24 -29 -25 -34 -25 -177 0 -116 -3 -151 -16 -169 -18 -27 -69 -30 -96 -5
-16 15 -18 36 -18 240 0 210 1 224 20 243 28 28 57 25 91 -11 16 -17 29 -27
29 -22 0 12 57 45 94 54 44 11 117 1 145 -20z m1712 8 c9 -5 28 -22 42 -38
l25 -30 38 35 c59 54 143 67 216 33 63 -28 88 -123 88 -334 0 -144 -9 -169
-61 -173 -63 -5 -69 9 -70 171 0 82 -5 157 -12 177 -22 65 -98 76 -151 23 -26
-25 -26 -28 -26 -172 0 -171 -8 -195 -60 -199 -63 -4 -64 -1 -70 187 -5 186
-11 203 -71 216 -37 8 -93 -18 -108 -51 -6 -15 -11 -82 -11 -167 0 -113 -3
-147 -16 -165 -18 -27 -69 -30 -96 -5 -16 15 -18 36 -18 240 0 210 1 224 20
243 27 27 56 25 86 -5 l26 -26 34 22 c19 11 47 25 62 29 29 10 107 3 133 -11z
m806 6 c93 -28 172 -130 173 -224 0 -78 -8 -81 -197 -81 -113 0 -163 -3 -163
-11 0 -6 17 -29 39 -50 35 -35 44 -39 90 -39 32 0 70 8 99 21 42 19 49 20 72
7 50 -28 35 -84 -33 -120 -35 -19 -58 -23 -138 -23 -93 0 -98 1 -146 34 -27
19 -63 55 -79 80 -27 42 -29 53 -29 141 0 111 15 150 79 212 40 38 105 66 157
67 14 1 48 -6 76 -14z m-6986 -14 c23 -19 24 -25 27 -185 3 -164 4 -166 29
-186 31 -24 89 -26 120 -5 33 23 43 76 43 227 0 137 0 138 26 154 19 13 32 15
52 8 50 -17 53 -38 50 -299 -3 -232 -4 -242 -28 -290 -43 -86 -118 -119 -256
-113 -65 2 -89 8 -111 24 -34 25 -40 57 -18 91 15 22 22 24 53 19 168 -28 203
-19 227 61 l6 23 -43 -20 c-27 -12 -65 -20 -104 -20 -73 0 -117 24 -151 85
-21 38 -23 52 -23 227 0 182 1 187 22 202 30 21 51 20 79 -3z m518 9 c11 -6
37 -62 67 -144 27 -75 51 -136 54 -136 3 0 21 43 39 95 34 98 49 115 95 115
32 0 46 -22 81 -122 15 -43 30 -78 34 -78 3 0 28 59 55 131 38 101 54 133 73
142 30 13 69 -4 85 -37 9 -22 1 -52 -62 -223 -97 -262 -92 -253 -139 -253 -21
0 -43 6 -49 13 -6 7 -29 62 -50 122 l-39 109 -33 -100 c-44 -134 -51 -144
-101 -144 -38 0 -41 3 -59 43 -35 80 -150 399 -150 417 0 20 44 60 67 60 8 0
22 -4 32 -10z m4236 -15 c24 -24 25 -28 25 -180 0 -152 1 -156 25 -180 35 -36
102 -35 136 1 23 24 24 33 29 191 5 148 7 166 24 179 29 20 54 17 81 -11 l25
-24 0 -225 c0 -273 -7 -314 -64 -370 -50 -50 -98 -66 -197 -65 -90 0 -139 16
-158 50 -12 22 -12 29 0 55 16 32 11 31 155 18 65 -6 73 -4 97 17 14 13 29 36
33 51 l6 28 -47 -21 c-63 -28 -156 -24 -202 9 -62 44 -73 87 -73 285 0 164 2
179 20 197 27 27 56 25 85 -5z m936 6 c24 -19 24 -22 27 -233 3 -244 -1 -261
-59 -266 -67 -6 -69 1 -69 254 0 211 1 225 20 244 25 25 51 25 81 1z"/>
<path d="M5794 4765 c-73 -16 -120 -38 -134 -64 -18 -35 -12 -76 16 -102 21
-20 35 -24 82 -23 60 1 85 10 140 51 30 23 32 27 32 89 l0 64 -37 -1 c-21 0
-66 -7 -99 -14z"/>
<path d="M1970 3588 c-65 -44 -88 -132 -54 -204 25 -52 59 -74 114 -74 79 0
130 57 130 145 0 116 -105 190 -190 133z"/>
<path d="M4970 3597 c-20 -7 -41 -25 -53 -44 l-19 -33 116 0 c64 0 116 3 116
8 0 19 -35 55 -66 68 -39 17 -48 17 -94 1z"/>
<path d="M5920 3599 c-32 -13 -70 -49 -70 -66 0 -10 25 -13 110 -13 85 0 110
3 110 13 0 18 -39 53 -73 66 -34 13 -44 13 -77 0z"/>
<path d="M6730 3592 c-74 -37 -99 -148 -50 -227 38 -61 125 -75 180 -28 39 32
52 64 51 126 0 60 -32 114 -77 133 -44 18 -62 18 -104 -4z"/>
<path d="M9924 3596 c-29 -13 -64 -50 -64 -68 0 -5 52 -8 115 -8 l116 0 -15
29 c-16 29 -70 61 -103 61 -10 -1 -32 -7 -49 -14z"/>
</g>
</svg>
